<svg width="851" height="1369" viewBox="0 0 851 1369" fill="none" xmlns="http://www.w3.org/2000/svg">
<mask id="mask0_92_69" style="mask-type:luminance" maskUnits="userSpaceOnUse" x="1" y="1" width="1242" height="1367">
<path d="M1242.65 352.033L798.168 1367.38L1.697 1016.35L446.176 1.00006L1242.65 352.033Z" fill="white"/>
</mask>
<g mask="url(#mask0_92_69)">
<path d="M96.1733 803.231C110.268 771.038 130.936 740.526 156.052 715.364C208.023 663.382 281.383 629.283 362.741 619.484C465.839 607.18 554.824 596.639 624.757 518.027C650.93 488.738 672.063 453.119 694.596 415.467C739.358 340.259 785.789 262.405 873.474 238.722C917.12 227.039 968.891 232.463 1019.7 253.884C1057.12 269.654 1093.22 293.049 1124.21 321.198C1159.81 353.794 1187.28 393.44 1201.34 433.212C1217.22 478.621 1216.09 523.775 1197.69 563.5C1172.79 617.505 1124.94 650.285 1078.73 681.614C1061.42 693.55 1043.5 705.704 1026.89 718.919C971.521 763.12 933.446 832.823 919.704 915.416C912.623 957.466 917.906 1000.62 922.701 1042.59C927.827 1084.95 932.843 1128.71 925.496 1171.37C917.744 1215.53 896.107 1248.28 860.909 1268.27C774.167 1317.98 629.842 1279.49 571.624 1260.6C442.411 1218.64 322.396 1147.63 206.126 1079C146.918 1043.97 108.941 1006.46 90.1985 964.139C72.5543 924.475 71.1571 878.206 85.7396 830.522C88.9169 821.535 92.2712 812.143 96.1733 803.231ZM1197.33 559.714C1214.26 521.041 1214.9 477.598 1199.42 433.574C1185.39 394.301 1158.34 354.838 1122.87 322.541C1092.3 294.572 1056.33 271.476 1018.99 255.507C968.692 234.066 917.134 228.737 874.295 240.293C787.422 263.851 741.17 341.296 696.496 416.304C673.873 454.161 652.74 489.78 626.567 519.069C556.162 598.193 466.874 608.845 363.267 621.163C282.417 630.948 209.448 664.737 157.567 716.514C125.342 748.693 100.758 789.313 87.7289 831.154C73.02 878.545 74.6898 924.207 91.9965 963.478C110.706 1005.3 148.255 1042.63 207.132 1077.27C323.194 1145.81 443.209 1216.82 572.208 1258.68C630.005 1277.39 773.908 1315.69 859.964 1266.4C894.651 1246.43 916.021 1214.29 923.596 1170.53C930.974 1128.37 925.75 1084.52 920.742 1042.45C915.74 1000.39 910.546 957.033 917.709 914.781C931.636 831.781 970.189 761.568 1025.64 717.16C1042.26 703.953 1060.26 691.594 1077.49 679.858C1123.61 648.733 1171.28 616.352 1196.09 562.55C1196.44 561.741 1196.89 560.727 1197.33 559.714ZM104.775 807.748C118.339 776.769 138.172 747.581 162.305 722.95C212.686 671.721 283.822 638.089 362.927 628.262L363.225 628.149C463.348 615.75 549.874 605.082 618.048 529.323C643.563 500.954 664.556 466.237 686.558 429.798C730.469 357.117 775.742 281.89 860.876 258.293C904.404 246.313 955.081 250.773 1003.96 270.864C1040.2 285.866 1075.63 308.491 1106.08 336.155C1140.67 367.588 1167.35 406.161 1181.02 444.548C1196.71 488.663 1195.69 532.419 1178.03 571.017C1153.87 623.903 1107.52 656.135 1062.72 687.121C1046.1 698.633 1029.08 710.463 1013.15 723.252C959.377 766.708 922.103 834.583 907.969 914.593C900.917 955.446 905.739 997.918 910.469 1038.89C915.108 1080.06 920.145 1122.63 912.909 1163.89C905.385 1206.95 884.4 1238.77 850.401 1258.32C767.138 1306.42 627.149 1270.1 570.662 1252.45C442.787 1212.04 321.501 1140.47 214.199 1077.24C155.654 1042.99 117.927 1006.07 99.2464 964.744C81.7992 926.375 80.2866 881.503 94.3356 835.037C97.5186 826.052 100.786 816.86 104.775 807.748ZM1177.23 568.247C1193.72 530.587 1194.51 487.94 1179.22 445.209C1165.68 407.108 1139.12 368.834 1104.73 337.498C1074.29 309.828 1039.2 287.597 1003.16 272.687C954.705 252.781 904.323 248.214 861.312 260.177C777.08 283.445 731.89 358.464 688.067 430.946C665.981 467.592 644.99 502.303 619.38 530.875C550.635 607.354 463.91 617.927 363.484 630.437L363.186 630.55C284.592 640.358 213.757 673.884 163.761 724.801C82.7059 806.963 73.9691 904.568 101.292 964.68C119.849 1005.71 157.241 1042.24 215.365 1076.3C322.454 1139.44 443.83 1210.8 571.401 1251.32C627.593 1269.08 767.16 1305.22 849.735 1257.55C883.439 1238.1 903.943 1206.8 911.409 1164.43L912.274 1163.61L911.341 1163.44C918.49 1122.38 913.571 1080.11 908.844 1039.14C904.121 998.17 899.29 955.7 906.32 914.348C920.411 833.838 957.862 765.558 1011.94 721.992C1027.87 709.203 1044.88 697.378 1061.51 685.861C1108.16 653.518 1152.35 622.747 1176.25 570.479C1176.61 569.665 1176.96 568.856 1177.23 568.247ZM113.377 812.266C126.322 782.699 145.282 754.341 168.338 730.439C217.048 680.165 286.175 647.095 362.692 636.854L363.712 636.821C460.769 624.518 544.524 613.839 610.917 540.434C636.078 512.873 656.538 479.375 678.186 443.745C721.034 373.489 765.367 300.994 847.643 277.584C891.134 265.106 940.938 268.697 988.093 287.542C1023.46 301.68 1057.92 323.628 1088.12 350.708C1121.54 381.378 1147.52 418.678 1160.81 456.181C1176.1 498.911 1175.28 541.062 1158.49 578.833C1135.28 630.686 1092.29 661.019 1046.75 693.124C1031.02 704.312 1014.9 715.81 999.755 727.973C947.348 770.585 910.877 836.641 896.786 914.257C889.66 954.113 894.21 995.494 898.658 1035.38C903.104 1075.26 907.744 1116.44 900.736 1156.59C893.537 1198.35 873.21 1229.25 840.318 1248.57C807.817 1267.58 763.179 1275.21 707.418 1271.41C655.063 1267.9 603.682 1254.68 569.996 1244.18C446.378 1206.13 327.605 1136.88 222.69 1075.67C164.485 1041.8 127.121 1005.77 108.721 965.536C91.4599 928.458 89.8434 884.987 103.485 840.034C106.117 830.562 109.477 821.173 113.377 812.266ZM1157.33 576.877C1173.47 540.02 1174.03 498.478 1159.32 456.723C1146.05 419.721 1120.28 382.516 1086.9 352.345C1057.12 325.451 1022.66 303.502 987.508 289.459C940.983 270.891 891.482 267.189 848.286 279.559C766.611 302.745 722.58 375.135 679.908 444.986C658.26 480.617 637.506 514.222 612.55 541.88C545.772 615.598 461.508 626.291 364.15 638.699L363.128 638.738C287.001 648.669 218.385 681.719 169.853 731.589C91.7624 812.157 83.7195 906.446 110.278 964.293C128.642 1004.03 165.578 1039.87 223.575 1073.65C328.284 1134.76 447.266 1204.11 570.462 1241.97C728.062 1290.41 806.662 1265.63 839.461 1246.5C871.968 1227.49 892.028 1197.2 899.05 1155.85C905.965 1115.89 901.449 1075.02 897.003 1035.13C892.645 995.042 887.887 953.569 895.1 913.514C909.059 835.602 946.016 769.034 998.721 726.308C1013.96 713.94 1030.07 702.448 1045.8 691.26C1091.04 659.26 1133.74 629.04 1156.77 577.591C1156.98 577.686 1157.16 577.281 1157.33 576.877ZM121.886 816.98C134.829 787.419 153.56 760.164 174.501 738.23C221.92 688.59 288.621 655.904 362.701 646.036L366.455 645.517C459.514 633.143 540.077 622.267 604.031 552.134C628.63 525.291 648.646 492.806 669.97 458.481C711.875 390.948 755.148 320.886 834.659 297.467C878.926 284.366 926.619 287.021 972.176 304.923C1006.57 318.396 1040.16 339.475 1069.81 366.069C1102.41 395.169 1127.26 431.005 1140.28 467.417C1154.84 508.377 1154.45 549.512 1138.83 586.352C1117.38 637.051 1075.8 667.035 1031.54 698.504C1016.51 709.268 1000.78 720.456 986.231 732.401C935.206 774.168 899.525 838.404 885.36 913.325C878.167 952.187 882.436 992.479 886.73 1031.57C890.771 1070.07 895.129 1110.15 888.451 1149C881.482 1189.65 861.804 1219.63 829.991 1238.22C756.343 1281.62 634.946 1255.17 568.998 1235.53C448.285 1199.48 327.73 1129.69 230.729 1073.41C172.311 1039.46 136.403 1005.28 117.744 965.647C95.1374 917.762 101.141 864.361 121.886 816.98ZM1136.16 587.833C1136.52 587.025 1136.78 586.415 1137.14 585.607C1152.59 549.174 1153 508.534 1138.57 467.873C1125.59 431.96 1100.94 396.213 1068.77 367.302C1039.32 340.798 1005.74 319.714 971.763 306.433C926.544 288.924 879.362 286.25 835.48 299.038C756.568 322.239 713.477 391.898 671.656 459.224C650.244 493.749 630.226 526.239 605.54 553.282C541.114 623.926 460.337 634.708 366.975 647.193L363.227 647.715C289.655 657.569 223.258 690.144 176.01 739.377C121.698 796.123 83.2798 887.896 119.54 964.991C138.08 1004.32 173.775 1038.41 231.862 1071.98C328.652 1128.16 449.201 1197.95 569.708 1233.91C635.232 1253.37 756.121 1279.83 829.081 1236.86C860.385 1218.28 879.878 1188.7 886.795 1148.76C893.384 1110.11 889.152 1070.32 885.103 1031.82C880.694 992.431 876.422 952.145 883.492 912.984C897.625 837.567 933.483 772.927 984.899 730.849C999.532 718.697 1015.17 707.717 1030.3 696.747C1073.78 665.905 1114.71 636.837 1136.16 587.833ZM130.664 821.094C142.989 792.944 160.678 766.922 180.54 745.722C225.72 697.751 292.17 664.472 362.674 654.72L367.751 654.057C457.536 641.687 535.037 630.915 597.021 563.536C620.968 537.614 640.838 506.03 661.718 472.718C702.564 407.619 744.894 340.28 821.758 317.149C866.204 303.638 912.807 305.337 956.428 321.903C989.738 334.409 1022.78 355.008 1051.89 381.121C1083.51 409.553 1107.22 443.43 1119.87 478.958C1134.02 518.53 1133.75 558.27 1119.29 594.166C1099.22 644.025 1058.71 673.273 1015.96 704.196C1001.61 714.537 986.776 725.399 972.921 736.923C923.27 777.848 888.299 840.461 874.261 912.781C867 950.649 871.204 989.941 874.919 1028.05C878.685 1065.47 882.732 1103.97 876.072 1141.61C869.211 1180.87 850.31 1210.22 819.695 1228.37C749.433 1270.36 631.84 1245.59 568.036 1227.38C459.109 1196.04 354.431 1138.32 238.926 1071.95C180.965 1038.68 145.515 1005.18 126.916 966.55C104.59 919.754 110.363 867.46 130.664 821.094ZM1115.91 597.272C1116.53 595.854 1117.07 594.636 1117.69 593.223C1139.14 539.625 1133.16 456.066 1050.64 382.259C1021.74 356.235 989.029 336.026 955.719 323.521C912.521 307.14 866.129 305.541 822.283 318.828C746.012 341.738 703.983 408.972 663.32 473.669C642.44 506.981 622.565 538.562 598.536 564.686C536.071 632.58 458.357 643.258 368.187 655.94L363.109 656.604C293.117 666.337 227.05 699.308 182.173 747.168C129.924 802.649 93.1684 891.772 128.594 965.598C147.066 1003.94 182.392 1037.13 239.937 1070.22C355.437 1136.59 459.907 1194.22 568.626 1225.46C632.127 1243.78 749.086 1268.27 818.66 1226.71C848.981 1208.66 867.609 1179.91 874.291 1141.07C880.562 1103.73 876.726 1065.33 872.961 1027.92C869.038 989.713 865.137 950.31 872.272 912.149C886.276 839.325 921.547 776.607 971.583 735.368C985.447 723.842 1000.48 713.077 1014.92 702.531C1056 672.563 1095.35 644.248 1115.91 597.272ZM139.356 825.406C151.147 798.476 167.797 773.679 186.49 753.418C230.082 706.195 294.309 673.384 362.348 663.517L368.837 662.511C455.134 650.052 529.867 639.262 589.89 574.646C613.478 549.531 632.819 519.168 653.259 486.864C693.04 424.197 734.212 359.486 808.437 336.639C853.058 322.729 898.576 323.461 940.474 338.786C972.817 350.621 1004.98 370.35 1033.63 395.784C1064.26 423.047 1086.95 455.758 1099.33 490.2C1112.96 528.091 1112.92 566.72 1099.41 601.591C1080.39 650.218 1041.29 679.123 999.951 709.703C986.287 719.626 972.359 730.153 958.976 741.164C910.699 781.249 876.526 842.039 862.532 911.961C855.204 948.834 859.04 987.236 862.687 1024.35C866.262 1060.47 869.822 1097.79 863.477 1134.13C856.854 1172.27 838.699 1200.51 808.985 1218.33C745.632 1256.6 642.408 1239.86 567.038 1218.72C460.803 1189.3 355.192 1131.4 246.965 1069.7C189.547 1036.9 154.251 1004.2 135.725 966.567C113.748 921.854 119.499 870.759 139.356 825.406ZM1095.36 606.816C1096.25 604.789 1097.05 602.967 1097.73 600.848C1118.13 548.487 1111.51 467.546 1032.59 397.011C1004.15 371.677 972.196 352.039 940.061 340.296C898.799 325.251 853.584 324.408 809.264 338.213C735.763 361.135 694.762 425.438 655.069 487.906C634.632 520.205 615.206 550.775 591.315 576.001C530.901 640.927 455.865 651.828 369.267 664.392L362.787 665.395C295.046 675.162 231.411 707.752 187.911 754.765C137.73 808.983 102.635 895.462 137.434 966.11C155.839 1003.45 190.713 1035.97 247.794 1068.37C355.813 1129.98 461.511 1187.68 567.451 1217.21C642.481 1237.96 745.107 1254.93 808.156 1216.77C837.274 1199.16 855.25 1171.33 861.614 1133.79C867.863 1097.65 864.222 1060.54 860.855 1024.51C857.295 987.194 853.462 948.786 860.877 911.713C875.048 841.388 909.31 780.392 957.972 739.995C971.147 728.892 985.283 718.457 999.034 708.335C1038.53 679.114 1075.86 651.361 1095.36 606.816ZM147.865 830.121C158.594 805.616 174.078 781.767 192.737 761.002C234.739 714.531 296.754 682.193 362.535 672.295L369.829 671.162C453.148 658.599 524.908 647.709 583.395 586.036C606.33 561.843 625.225 532.486 645.344 501.495C684.269 441.351 724.384 379.069 796.053 356.304C841.452 341.766 884.854 341.572 925.24 355.742C956.619 366.914 988.112 385.867 1016.22 410.816C1045.63 436.821 1068.63 469.424 1080.48 502.179C1094.04 539.081 1093.9 576.22 1080.38 609.393C1060.78 657.04 1023.01 685.801 982.807 716.639C970.644 726.014 957.882 735.608 945.784 745.983C899.009 785.513 865.508 844.188 851.439 911.42C844.04 947.29 847.598 984.612 850.877 1020.84C853.926 1055.28 857.205 1091.51 851.186 1126.54C844.881 1163.38 827.082 1190.8 798.778 1208.28C738.306 1245.16 638.754 1229.8 566.076 1210.57C462.525 1183.05 359.938 1127.45 255.161 1068.24C219.479 1047.92 169.159 1015.6 144.987 967.265C128.996 935.34 126.427 897.488 137.855 857.592C140.397 848.325 143.875 839.232 147.865 830.121ZM1076.86 611.705C1077.3 610.691 1077.74 609.677 1078.28 608.464C1091.83 575.787 1091.79 539.053 1078.35 502.45C1066.54 470.191 1043.87 437.975 1014.67 412.062C986.769 387.205 955.481 368.349 924.442 357.564C884.478 343.58 841.584 343.76 796.578 357.983C725.506 380.534 685.482 442.606 646.853 502.642C626.74 533.636 607.75 563.196 584.727 587.588C525.979 649.872 453.798 660.577 370.178 673.245L362.883 674.378C297.606 684.26 235.987 716.29 194.069 762.553C168.641 790.723 149.238 824.687 139.541 858.335C128.386 897.625 130.614 935.088 146.487 966.717C170.409 1014.46 220.311 1046.6 255.782 1066.82C360.558 1126.04 462.938 1181.54 566.275 1208.96C638.653 1228.3 737.693 1243.68 797.565 1207.02C825.483 1189.86 842.804 1162.94 849.146 1126.61C855.075 1091.78 851.917 1055.84 848.741 1021.11C845.462 984.881 841.997 947.361 849.272 911.192C863.314 843.459 896.983 784.383 944.061 744.741C956.159 734.366 968.921 724.773 981.085 715.398C1020.3 685.088 1057.09 656.858 1076.86 611.705ZM156.342 834.339C166.538 811.053 180.976 788.428 198.776 768.493C239.404 722.864 298.981 690.905 362.513 680.981L370.917 679.61C450.747 666.963 519.868 656.357 576.174 597.352C598.542 573.873 617.207 545.624 636.885 515.64C674.744 457.928 713.913 398.375 782.819 375.595C829 360.436 870.499 359.397 909.076 372.538C939.572 382.833 970.098 401.115 997.756 425.383C1026.08 450.426 1048.38 481.755 1060.03 513.222C1073.2 548.733 1073.37 584.564 1060.39 616.527C1041.65 663.343 1004.69 691.98 965.808 722.68C954.718 731.319 943.159 740.478 932.015 749.82C886.23 788.822 853.529 845.669 839.887 910.194C832.421 945.07 835.61 981.504 838.822 1016.74C841.806 1050.18 844.773 1084.82 838.984 1118.75C832.699 1154.39 815.765 1180.98 788.746 1197.82C742.761 1226.35 667.592 1227.77 565.379 1201.81C464.733 1176.29 361.12 1120.73 263.498 1065.87C228.148 1045.95 178.375 1014.11 154.305 967.268C138.508 936.631 136.13 900.073 146.841 861.797C148.999 852.842 152.353 843.451 156.342 834.339ZM1056.88 620.529C1057.5 619.111 1058.11 617.698 1058.83 616.075C1071.63 584.517 1071.48 549.187 1058.45 513.972C1046.7 482.707 1024.73 451.769 996.624 426.82C969.18 402.647 938.862 384.456 908.575 374.247C870.216 361.208 829.222 362.226 783.553 377.365C715.251 399.929 676.166 459.275 638.481 516.588C618.811 546.569 600.141 574.816 577.683 598.499C520.992 657.817 451.486 668.736 371.443 681.289L363.033 682.657C300.015 692.57 240.829 724.219 200.586 769.535C176.231 796.969 157.784 829.899 148.623 862.337C137.993 900.411 140.429 936.268 155.895 966.515C179.631 1012.97 229.283 1044.52 264.42 1064.35C361.828 1119.11 465.227 1174.58 565.881 1200.09C667.674 1225.87 742.235 1224.67 787.838 1196.45C814.765 1179.82 831.31 1153.53 837.329 1118.5C843.236 1084.87 840.187 1050.43 837.198 1016.99C834.079 981.556 830.979 944.918 838.527 909.839C852.265 845.112 885.137 787.858 931.315 748.54C942.546 738.999 954.021 730.047 965.195 721.201C1002.13 692.063 1037.72 664.27 1056.88 620.529ZM164.944 838.857C175.319 815.161 189.615 793.444 204.725 776.19C243.676 731.513 301.035 700.024 362.184 689.77L371.915 688.263C448.471 675.621 514.608 664.909 569.164 608.753C591.178 586.083 609.399 558.847 628.543 530.083C665.341 474.797 703.45 417.677 769.623 395.384C816.668 379.397 855.971 377.635 893.243 389.712C922.776 399.344 952.633 416.856 979.745 440.639C1007.28 464.607 1028.36 494.673 1039.95 525.148C1052.71 559.271 1053.01 593.701 1040.97 624.634C1022.89 670.533 987.246 699.03 949.477 729.492C939.376 737.602 928.89 746.024 918.736 754.838C874.237 793.197 842.332 848.228 828.911 909.95C821.378 943.832 824.199 979.376 827.042 1013.72C829.543 1045.98 832.319 1079.33 826.64 1111.86C820.674 1146.19 804.396 1171.87 778.275 1188.37C734.179 1216.05 664.065 1218 564.327 1193.86C466.371 1170.26 361.738 1114.72 271.695 1064.41C236.682 1044.88 187.148 1013.62 163.479 968.165C141.072 926.164 147.214 879.352 164.944 838.857ZM1036.8 629.56C1037.59 627.738 1038.48 625.711 1039.07 623.797C1050.93 593.274 1050.67 559.343 1038.03 525.505C1026.78 495.423 1005.6 465.56 978.489 441.777C951.498 418.286 921.941 400.668 892.835 391.224C855.985 379.332 817.185 381.079 770.443 396.955C704.782 419.229 666.855 475.946 630.145 531.033C610.913 559.997 592.693 587.233 570.589 610.108C515.856 666.668 449.418 677.486 372.351 690.147L362.62 691.654C301.856 701.595 244.8 732.973 206.234 777.337C165.674 823.961 130.308 901.855 164.645 967.232C188.278 1012.19 237.39 1043.26 272.189 1062.7C362.322 1112.81 466.654 1168.44 564.403 1191.96C663.719 1215.91 733.232 1214.18 777.031 1186.62C802.763 1170.42 818.651 1145.05 824.653 1111.22C830.237 1078.9 827.585 1045.85 824.876 1013.49C822.122 978.943 819.093 943.307 826.711 909.218C840.315 847.094 872.602 791.756 917.193 753.186C927.344 744.378 937.831 735.956 948.229 727.733C984.178 699.131 1018.36 671.673 1036.8 629.56ZM174.021 842.857C183.775 820.579 196.941 800.294 210.972 783.773C248.338 739.852 303.475 708.83 362.281 698.753L373.211 696.803C446.404 684.371 509.776 673.649 562.16 620.157C583.514 598.412 601.293 572.185 620.297 544.323C656.238 491.56 693.196 437.071 756.811 414.861C789.223 403.539 832.093 392.479 877.584 406.487C906.148 415.454 935.255 432.384 961.701 455.391C1019.49 505.741 1042.82 574.965 1021.1 632.059C1003.88 677.134 969.257 705.6 932.688 735.619C923.576 743.2 914.169 750.889 904.88 758.874C861.756 796.393 830.567 849.802 817.059 908.83C809.463 941.72 812.217 976.269 814.692 1009.72C816.996 1040.69 819.37 1072.66 814.017 1103.88C808.369 1136.9 792.658 1161.86 767.828 1177.74C726.217 1204.32 659.2 1206.68 563.211 1184.91C467.851 1163.41 366.756 1110.17 279.52 1062.06C241.759 1041.32 195.729 1011.85 172.078 968.096C150.525 928.156 156.644 882.543 174.021 842.857ZM1016.52 638.498C1017.49 636.271 1018.56 633.839 1019.32 631.519C1045.29 563.003 1003.77 494.468 960.355 456.734C933.912 433.722 905.232 416.98 876.786 408.309C831.806 394.282 789.358 405.528 757.336 416.539C694.32 438.531 657.449 492.82 621.893 545.271C602.895 573.135 585.118 599.357 563.666 621.31C510.9 675.109 444.195 686.536 373.734 698.488L362.806 700.431C304.51 710.495 249.67 741.403 212.487 784.923C173.901 830.481 140.497 905.625 173.786 967.64C196.895 1010.92 243.015 1040.18 280.355 1060.74C367.585 1108.84 468.469 1162 563.618 1183.4C659.186 1204.98 725.692 1202.65 766.914 1176.36C791.447 1160.6 806.683 1136.16 812.362 1103.63C817.628 1072.62 815.251 1040.65 813.071 1009.98C810.593 976.518 807.929 941.764 815.617 908.677C829.297 849.243 860.579 795.636 903.882 757.708C913.171 749.722 922.666 741.834 931.778 734.253C966.015 706.1 998.698 679.198 1016.52 638.498ZM182.498 847.075C191.011 827.633 202.921 808.486 217.011 791.265C252.79 748.091 305.701 717.542 362.259 707.439C366.398 706.607 370.456 705.976 374.505 705.349C441.476 693.313 504.817 682.096 555.361 631.659C576.363 610.717 593.699 585.503 612.257 558.66C647.045 508.528 682.941 456.466 743.917 434.539C780.098 421.502 819.427 411.055 861.755 423.669C889.441 431.76 917.579 448.026 943.775 470.44C999.143 518.271 1021.88 584.822 1001.56 639.875C985.205 684.122 951.603 712.555 916.06 742.544C908.026 749.391 899.693 756.344 891.48 763.601C849.856 800.571 819.252 852.065 805.875 908.494C798.209 940.381 800.595 974.042 802.792 1006.42C804.91 1036.09 806.88 1066.68 801.757 1096.78C796.136 1128.61 781.372 1152.54 757.658 1168.18C705.575 1201.99 621.374 1189.53 562.367 1177.05C474.277 1158.52 378.328 1110.2 287.93 1060.69C250.503 1040.33 204.929 1011.55 181.466 969.088C166.742 942.307 163.823 909.865 172.857 875.435C174.978 865.983 178.332 856.591 182.498 847.075ZM996.447 647.527C997.689 644.691 998.841 642.06 999.869 639.13C1019.93 584.683 997.345 518.933 942.525 471.58C917.166 449.535 888.309 433.198 861.342 425.179C819.652 412.839 780.623 423.181 744.53 436.019C684.152 457.726 648.346 509.584 613.647 559.511C595.087 586.359 577.544 611.481 556.448 632.62C505.646 683.664 442.001 694.992 374.609 706.842C370.557 707.475 366.412 708.305 362.363 708.932C306.314 719.021 253.7 749.457 218.312 792.32C159.627 863.083 161.565 929.4 182.716 967.947C205.845 1010.03 251.301 1038.51 288.307 1058.69C378.698 1108.19 474.44 1156.42 562.322 1174.86C620.908 1187.15 704.808 1199.72 756.196 1166.33C779.532 1151.01 794.11 1127.48 799.559 1096.06C804.803 1066.24 802.53 1035.77 800.628 1006.18C798.31 973.517 796.133 939.948 803.675 907.762C817.228 850.928 847.92 799.236 889.841 762.152C898.057 754.903 906.481 747.745 914.427 741.098C947.762 713.274 979.248 686.809 996.447 647.527ZM190.976 851.294C199.399 832.057 210.778 814.123 223.051 798.756C257.151 756.535 307.933 726.257 362.024 716.031C366.674 715.18 371.114 714.242 375.469 713.498C439.496 701.863 499.861 690.537 548.438 642.861C568.879 622.636 585.984 598.529 604.005 572.897C637.734 525.2 672.686 475.86 730.808 454.129C766.355 440.806 804.561 428.9 845.801 440.552C872.01 447.992 900.324 463.853 925.433 485.305C978.376 530.621 1000.53 594.493 981.807 647.597C966.446 691.317 933.653 719.618 898.827 749.685C891.96 755.599 884.705 761.818 877.565 768.339C837.228 804.667 807.422 854.338 794.267 907.964C786.534 938.857 788.644 971.431 790.597 1003.22C792.31 1031.51 794.094 1060.8 789.288 1089.6C780.728 1138.49 749.958 1167.93 697.421 1176.9C652.991 1184.62 601.352 1176.59 561.406 1168.9C476.001 1152.27 383.287 1106.34 295.911 1059.14C259.031 1039.26 213.702 1011.07 190.43 969.9C169.222 932.048 174.398 889.158 190.976 851.294ZM976.287 656.761C977.705 653.52 978.911 650.186 980.209 646.655C998.657 594.152 976.788 531.368 924.39 486.538C899.49 465.177 871.597 449.501 845.388 442.061C804.576 430.598 766.667 442.391 731.415 455.606C673.684 477.026 639.035 526.255 605.395 573.748C587.372 599.386 570.18 623.692 549.444 644.024C500.6 692.31 440.021 703.542 375.905 715.382C371.462 716.325 366.902 716.972 362.459 717.915C308.667 728.027 258.275 757.995 224.47 800.109C188.107 845.199 160.662 913.058 191.767 968.559C214.713 1009.34 259.703 1037.15 296.501 1057.23C383.871 1104.43 476.288 1150.47 561.36 1166.7C601.307 1174.4 652.738 1182.33 696.651 1174.63C748.376 1165.78 778.968 1136.75 787.181 1088.67C792.105 1060.17 790.321 1030.87 788.52 1002.78C786.565 971.004 784.544 938.225 792.367 907.127C805.699 853.096 835.593 803.226 876.323 766.582C883.367 760.264 890.625 754.039 897.585 747.928C929.633 720.747 959.708 694.625 976.287 656.761ZM200.148 855.091C207.86 837.477 218.197 820.775 229.208 806.544C261.721 765.07 309.982 735.373 362.12 725.014C367.074 724.052 372.025 723.095 376.976 722.138C437.819 710.302 495.028 699.277 541.521 654.065C561.607 634.649 578.263 611.554 596.054 587.029C628.721 541.758 662.518 495.055 717.996 473.606C758.006 458.146 791.772 447.177 830.359 457.416C855.893 464.083 883.241 479.273 907.81 500.243C958.454 543.337 979.977 604.032 962.658 655.103C947.98 698.397 915.909 726.778 882.111 756.809C876.404 761.788 870.523 767.165 864.643 772.542C825.596 808.236 796.587 856.085 783.35 907.019C775.55 936.917 777.291 968.602 778.963 999.299C780.491 1026.3 781.87 1054.2 777.174 1081.6C757.789 1194.32 619.459 1170.32 560.497 1160.04C477.698 1145.53 384.379 1099.82 304.04 1056.69C267.492 1037.2 222.621 1009.69 199.534 969.808C178.675 934.04 183.924 892.147 200.148 855.091ZM956.039 666.194C957.722 662.35 959.104 658.611 960.576 654.667C977.634 604.208 956.355 544.103 906.377 501.786C882.145 481.209 854.8 466.013 829.679 459.534C791.519 449.484 758.264 460.434 718.64 475.581C663.761 496.811 630.053 543.309 597.481 588.379C579.688 612.909 562.937 636.206 542.766 655.816C495.975 701.141 438.375 712.477 377.324 724.221C372.371 725.183 367.42 726.14 362.469 727.097C310.929 737.238 262.755 766.735 230.635 807.894C196.422 851.52 170.764 917.027 201.034 969.26C223.781 1008.76 268.444 1036.17 304.781 1055.56C385 1098.4 478.016 1144.23 560.607 1158.64C601.329 1165.71 648.657 1172.08 689.215 1164.59C738.265 1155.52 767.09 1127.65 775.134 1081.67C779.74 1054.47 778.355 1026.57 776.83 999.561C775.243 968.671 773.504 936.98 781.184 906.791C794.598 855.453 823.482 807.305 862.92 771.301C868.801 765.923 874.682 760.546 880.388 755.568C911.203 728.325 940.079 702.646 956.039 666.194ZM208.626 859.31C215.363 843.922 224.444 828.358 235.247 814.036C265.962 773.223 312.217 744.082 361.885 733.606C367.437 732.425 372.689 731.363 377.938 730.293C435.42 718.661 489.862 707.632 534.303 665.375C553.819 646.679 570.245 624.692 587.684 600.97C619.287 558.13 651.932 514.058 704.763 492.897L707.46 491.911C742.555 477.907 775.855 464.558 814.487 474.096C839.06 480.095 865.955 494.604 889.645 514.704C937.858 555.279 958.583 613.204 942.868 662.326C929.098 705.293 899.002 732.609 864.279 764.169C859.742 768.208 855.412 772.34 850.784 776.584C812.249 812.259 784.867 856.959 771.709 905.998C763.843 934.897 765.324 964.3 766.734 995.594C767.854 1021.21 769.259 1047.92 764.585 1074.13C746.295 1180.32 620.048 1160.92 559.415 1151.59C478.909 1139.31 384.963 1093.31 312.112 1054.92C275.896 1035.83 231.57 1008.8 208.677 970.21C194.794 946.7 191.4 919.355 198.836 888.576C200.957 879.123 204.28 869.235 208.626 859.31ZM935.701 675.832C937.651 671.379 939.387 666.831 941.006 661.987C956.661 613.566 936.093 556.431 888.42 516.339C864.646 496.446 838.389 482.211 813.902 476.013C775.987 466.553 742.991 479.791 708.199 493.684L705.502 494.669C653.261 515.615 620.706 559.483 589.198 602.12C571.849 625.637 555.244 648.034 535.722 666.727C490.898 709.291 436.364 720.531 378.587 732.271C373.335 733.333 367.783 734.514 362.528 735.581C313.161 745.952 267.294 774.775 236.969 815.278C219.412 838.702 206.44 864.868 200.522 889.319C193.269 919.696 196.533 946.74 210.172 969.659C232.944 1007.96 276.944 1034.6 312.944 1053.61C385.702 1092.19 479.53 1137.89 559.519 1150.19C587.36 1154.48 639.086 1162.31 681.232 1154.06C728.323 1144.86 754.911 1118.65 762.539 1074.19C767.036 1048.39 765.842 1021.78 764.722 996.161C763.419 966.354 761.921 935.259 769.877 906.156C783.122 856.917 810.681 811.813 849.52 776.027C854.147 771.782 858.477 767.651 863.015 763.611C893.459 735.485 920.362 710.866 935.701 675.832ZM217.495 863.218C225.738 844.391 235.782 829.49 241.404 821.824C269.97 782.476 315.165 752.875 361.984 742.583C367.837 741.297 373.684 740.008 379.447 738.927C433.861 727.397 485.237 716.464 527.506 676.871C546.579 659.188 562.737 637.81 579.859 615.396C610.308 575.193 641.882 533.549 691.988 512.872C694.775 511.681 697.773 510.591 700.648 509.201C732.714 495.792 762.976 483.04 798.657 491.278C822.477 496.701 848.397 510.542 871.629 529.958C917.336 568.219 937.557 623.266 923.242 670.341C910.187 713.386 880.429 741.095 846.254 773.134C843.268 775.928 840.284 778.717 837.297 781.51C800.046 816.549 773.374 859.626 760.314 905.563C752.379 933.472 753.493 961.98 754.533 992.391C755.465 1016.72 756.467 1042.04 752.117 1066.94C744.769 1109.6 718.397 1135.9 673.981 1145.31C635.115 1153.55 588.933 1147.45 558.447 1143.43C480.971 1133.45 390.468 1089.94 320.188 1053.17C282.28 1033.33 240.219 1008.02 217.517 970.723C195.302 934.607 204.105 893.799 217.495 863.218ZM915.572 685.562C917.788 680.499 919.791 675.342 921.466 669.803C935.725 623.423 915.661 569.166 870.499 531.39C847.481 512.068 821.887 498.615 798.37 493.081C763.11 485.029 733.239 497.47 701.471 510.767C698.684 511.957 695.689 513.056 692.814 514.445C643.31 534.899 611.817 576.34 581.455 616.344C564.252 638.96 548.181 660.139 529.013 678.024C486.361 717.924 434.681 728.968 380.06 740.406C374.207 741.692 368.444 742.774 362.596 744.062C316.076 754.241 271.479 783.623 243.096 822.57C228.578 842.497 184.127 911.802 219.49 969.662C241.953 1006.38 283.589 1031.48 321.281 1051.24C391.355 1087.92 481.738 1131.13 558.911 1141.23C589.391 1145.24 635.159 1151.15 673.936 1143.12C718.262 1133.91 743.381 1108.74 750.728 1066.08C754.989 1041.39 754.113 1016.36 753.178 992.039C752.03 963.027 751.109 932.912 758.924 904.712C772.163 858.365 798.924 815.083 836.35 779.646C839.337 776.852 842.321 774.064 845.307 771.27C874.377 743.985 900.676 719.582 915.572 685.562ZM226.06 867.237C233.064 851.24 241.377 837.995 247.443 829.316C274.331 790.92 317.096 761.695 361.956 751.267C368.2 749.67 374.562 748.371 380.712 746.971C431.844 735.448 480.368 724.705 520.584 688.073C539.308 671.202 555.025 650.832 571.782 629.235C601.168 591.457 631.597 552.448 678.968 532.257C683.343 530.319 687.718 528.382 692.093 526.444C721.512 513.321 749.253 501.151 782.704 508.161C805.762 513.01 830.811 525.979 853.376 544.619C896.658 580.364 916.377 632.533 903.37 677.766C890.951 721.091 861.432 749.388 827.114 782.335L823.649 785.639C787.601 820.242 761.727 861.497 748.887 904.637C740.88 931.544 741.54 959.375 742.388 988.493C743.132 1011.52 743.732 1035.46 739.702 1059.05C732.559 1100.11 708.722 1124.63 666.686 1134.37C631.396 1142.49 590.964 1138.2 558.385 1134.96L557.455 1134.78C482.063 1126.93 390.63 1083.25 328.348 1051.21C290.778 1031.76 249.169 1007.14 226.658 971.13C204.755 936.599 212.94 897.203 226.06 867.237ZM895.147 695.399C897.628 689.733 899.777 683.676 901.505 677.433C914.154 633 894.893 581.516 852.157 546.255C829.8 527.707 804.964 514.833 782.327 510.169C749.388 503.14 721.86 515.404 692.826 528.214C688.451 530.152 684.076 532.089 679.707 534.029C632.841 554.199 602.506 593.012 573.209 630.584C556.444 652.184 540.519 672.462 521.705 689.538C481.017 726.683 432.488 737.423 381.058 749.06C374.904 750.451 368.54 751.756 362.302 753.355C318.043 763.559 275.663 792.472 248.871 830.665C231.586 855.182 195.118 918.337 228.069 970.787C250.548 1006.3 291.643 1030.93 329.087 1050.09C391.161 1082.04 482.597 1125.71 557.477 1133.58L558.407 1133.76C623.475 1140.45 721.967 1150.76 737.78 1059.41C741.723 1036.03 741.038 1012.29 740.503 989.354C739.621 959.732 738.871 932.105 747.054 904.794C760.072 861.25 786.035 819.79 822.171 784.987L825.636 781.684C854.941 753.294 880.605 728.611 895.147 695.399ZM234.982 870.442C240.744 857.281 247.54 845.786 253.395 837.007C278.479 799.27 319.027 770.515 361.541 760.269C368.296 758.653 375.045 757.035 381.71 755.624C429.687 744.402 475.145 733.756 513.489 699.682C531.733 683.326 547.214 664.061 563.744 643.566C592.068 608.215 621.342 571.842 665.771 552.046C671.433 549.466 677.092 546.892 682.459 544.42C709.534 531.474 735.23 519.367 766.781 525.54C788.878 529.721 813.166 542.116 835.273 560.072C876.042 593.501 895.264 642.794 883.741 685.787C872.077 729.683 841.943 759.4 809.859 790.676C775.01 824.836 749.931 864.274 737.315 904.605C729.241 930.518 729.533 957.46 730.134 985.993C730.478 1007.64 730.887 1030.29 727.054 1052.27C712.047 1138.9 621.153 1131.94 560.941 1127.39L556.314 1127.04C502.174 1122.98 430.114 1097.75 336.241 1049.86C299.218 1030.89 258.065 1006.95 235.535 972.141C222.731 952.49 219.189 928.945 224.551 902.32C227.048 890.859 230.725 880.163 234.982 870.442ZM874.84 705.534C877.675 699.059 880.091 692.392 882.049 685.042C893.305 642.658 874.542 594.049 834.318 561.105C812.632 543.334 788.466 531.231 766.671 526.939C735.548 520.954 710.147 532.953 683.367 545.792C677.921 548.46 672.259 551.04 666.592 553.617C622.466 573.302 593.279 609.476 565.045 644.622C548.516 665.117 532.945 684.586 514.701 700.942C475.971 735.329 430.51 745.968 382.228 757.306C375.481 758.919 368.816 760.329 362.067 761.947C319.758 772.291 279.904 800.625 254.997 837.958C207.405 909.261 226.775 954.754 237.294 970.987C259.498 1005.41 300.438 1029.25 337.252 1048.13C430.911 1095.93 502.55 1120.97 556.684 1125.03L561.318 1125.38C620.813 1129.85 710.889 1136.94 725.576 1051.62C729.415 1029.64 728.91 1007.19 728.568 985.541C727.965 957.014 727.46 929.977 735.71 903.66C748.422 863.127 773.585 823.482 808.824 789.011C835.233 763.209 860.476 738.341 874.84 705.534ZM243.813 873.852C248.688 862.718 254.355 852.654 259.344 844.704C282.751 807.919 320.869 779.54 361.432 769.154C368.572 767.226 375.83 765.594 382.88 763.871C427.796 752.748 470.105 742.404 506.269 710.997C524.159 695.45 539.5 677.088 555.587 657.601C582.757 624.887 610.963 590.937 652.664 571.63C659.313 568.527 665.75 565.325 671.892 562.23C697.136 549.441 720.879 537.2 751.041 542.517C772.377 546.125 795.998 557.744 817.353 575.123C855.913 606.125 874.322 652.648 864.201 693.603C854.111 735.054 828.773 763.019 796.548 795.197C762.416 829.436 738.588 866.035 726.005 903.976C717.777 929.093 718.003 955.036 718.028 982.588C718.179 1002.95 718.279 1024 714.675 1044.88C700.792 1125.48 617.893 1121.56 563.048 1119.13C560.37 1118.92 557.816 1119 555.138 1118.79C503.266 1116.46 434.23 1093.52 344.227 1048.31C307.443 1029.92 266.838 1006.47 244.499 972.953C223.542 940.286 231.047 903.009 243.813 873.852ZM854.48 716.371C857.759 708.883 860.411 701.111 862.599 692.653C872.459 652.309 854.199 606.579 816.274 575.857C795.26 558.865 772.054 547.429 751.019 543.716C721.494 538.674 697.92 550.513 673.193 563.286C666.964 566.58 660.526 569.782 653.876 572.891C612.476 592.092 584.657 625.724 557.487 658.438C541.399 677.925 525.971 696.486 508.081 712.034C471.614 743.552 429.008 754.008 383.796 765.239C376.744 766.968 369.393 768.797 362.343 770.52C322.288 780.892 284.356 808.864 261.331 845.341C243.392 873.666 217.466 927.703 246.524 971.189C268.751 1004.42 308.929 1027.68 345.499 1045.97C435.506 1091.19 504.241 1114.23 555.692 1116.38C558.156 1116.49 560.837 1116.71 563.601 1116.72C621.121 1119.36 699.601 1123.03 713.29 1044.03C716.801 1023.35 716.613 1002.49 716.46 982.141C716.222 954.495 716.085 928.348 724.493 902.82C737.16 864.686 760.873 827.785 795.306 793.441C820.726 768.168 841.801 745.329 854.48 716.371ZM252.912 876.652C256.281 868.958 260.338 860.841 265.591 852.287C287.113 816.363 323.005 788.457 361.618 777.932C369.357 775.785 377.005 773.843 384.446 771.81C426.209 760.982 465.444 750.738 499.56 722.293C517.096 707.555 532.082 690.001 548.021 671.421C574.126 641.138 600.886 609.927 639.852 591.107C647.189 587.58 654.194 583.663 660.898 579.851C684.397 567.02 706.403 554.735 735.259 558.993C755.752 562.229 778.499 572.981 799.271 589.377C835.317 618.068 853.023 661.618 844.507 700.624C836.22 738.522 815.626 765.438 782.78 799.035C749.55 832.944 726.637 868.017 714.543 902.545C706.247 926.668 706.016 951.927 705.886 978.684C705.851 997.752 705.847 1017.32 702.353 1036.79C689.504 1111.57 617.448 1110.49 564.871 1109.79C561.384 1109.7 557.894 1109.62 554.531 1109.83C505.859 1109.39 437.944 1087.92 352.653 1045.74C314.605 1026.8 276.268 1005.07 253.901 972.748C243.359 957.715 231.103 926.464 252.912 876.652ZM834.157 727.707C837.88 719.205 840.849 710.126 843.059 700.468C851.523 662.166 833.766 619.313 798.266 591.107C777.909 574.895 755.381 564.24 735.096 561.095C707.047 556.71 685.136 568.793 661.845 581.716C654.927 585.433 647.928 589.353 640.589 592.885C602.007 611.392 575.25 642.598 549.446 672.776C533.501 691.354 518.517 708.902 500.684 723.753C466.391 752.602 426.639 762.863 384.876 773.691C377.441 775.727 369.579 777.575 362.048 779.813C323.952 790.321 288.451 817.917 267.106 853.437C250.923 880.612 227.807 932.261 255.401 972.2C277.434 1004.14 315.471 1025.97 353.398 1044.62C438.478 1086.7 506.095 1108.28 554.339 1108.53C557.613 1108.53 561.103 1108.61 564.893 1108.59C616.745 1109.22 688.084 1110.22 700.521 1036.95C703.925 1017.68 703.929 998.114 703.874 979.251C704.004 952.494 704.112 926.937 712.711 902.703C724.982 867.77 747.894 832.697 781.516 798.477C805.909 773.235 823.43 752.206 834.157 727.707ZM262.275 878.849C265.2 872.169 268.459 865.874 271.844 859.873C291.475 824.807 325.15 797.371 361.591 786.616C369.72 784.159 377.967 781.998 386.006 779.746C424.614 769.219 460.915 759.367 492.639 733.49C509.908 719.361 524.665 702.915 540.461 685.243C565.203 657.491 590.814 628.919 626.957 610.791C634.681 606.946 642.166 602.514 649.429 597.99C671.281 584.909 692.046 572.565 719.637 576.266C739.377 578.926 761.453 588.899 781.475 604.727C815.008 631.101 832.205 671.772 825.388 708.625C818.159 746.989 797.898 774.291 769.804 803.942C737.113 838.333 715.442 870.57 703.778 902.387C695.117 925.629 694.728 950.098 694.23 975.966C693.883 993.449 693.688 1011.72 690.61 1029.68C678.8 1098.64 613.884 1100.23 566.548 1101.35C562.254 1101.39 558.166 1101.52 554.08 1101.65C496.769 1103.69 417.686 1071.5 361.145 1044.17C323.555 1025.91 285.551 1004.57 263.168 973.449C242.358 944.475 249.242 908.615 262.275 878.849ZM813.834 739.043C818.09 729.322 821.289 719.136 823.402 707.988C830.159 671.835 813.42 631.849 780.219 605.865C760.537 590.425 738.97 580.438 719.437 577.87C692.571 574.244 672.102 586.48 650.553 599.45C643.377 603.774 635.892 608.207 627.867 612.157C592.019 630.177 566.715 658.646 541.976 686.393C526.177 704.07 511.333 720.715 494.064 734.845C461.949 761.032 425.347 770.989 386.74 781.516C378.793 783.572 370.451 785.935 362.322 788.392C326.184 799.036 292.989 825.957 273.44 860.821C255.737 892.632 239.75 937.768 264.632 972.402C286.687 1003.14 324.479 1024.38 361.856 1042.54C417.885 1069.89 496.76 1102 553.852 1099.86C557.938 1099.73 562.026 1099.6 566.326 1099.56C612.937 1098.36 676.835 1096.81 688.53 1029.26C691.522 1011.49 691.927 993.307 692.277 975.832C692.86 949.757 693.04 925.196 701.789 901.755C713.543 869.733 735.303 837.291 768.289 802.792C787.76 781.902 803.728 762.124 813.834 739.043ZM271.52 880.749C273.383 876.495 275.63 871.928 277.794 867.569C295.541 833.359 326.777 806.301 361.474 795.504C370.201 792.829 378.929 790.153 387.479 787.882C422.847 777.863 456.074 768.11 485.841 744.991C502.969 731.765 517.548 715.723 533.111 699.151C556.491 673.944 580.733 647.915 614.057 630.467C622.259 626.112 629.922 621.276 637.365 616.342C657.857 602.907 677.393 590.504 703.807 593.448C722.788 595.529 744.111 604.926 763.341 619.684C794.362 643.742 811.055 681.534 805.635 716.347C800.414 749.556 786.037 776.068 755.977 808.48C733.943 832.344 706.742 864.562 691.959 901.771C683.234 924.013 682.387 947.798 681.734 972.871C681.196 989.06 680.689 1005.75 677.717 1022.32C666.769 1085.85 608.966 1089.61 566.665 1092.46C561.765 1092.72 557.08 1093.07 552.601 1093.51C498.443 1098.15 422.887 1068.24 368.92 1042.52C331.875 1024.75 294.538 1004.18 272.008 973.961C254.849 950.462 254.675 919.223 271.52 880.749ZM793.454 751.075C798.418 739.737 801.638 728.356 803.648 715.71C809.015 681.6 792.774 644.49 762.085 620.822C743.068 606.158 722.167 596.947 703.484 594.753C677.579 591.795 658.469 604.386 638.155 617.417C630.706 622.348 622.962 627.387 614.544 631.653C581.52 648.982 557.37 674.814 533.991 700.021C518.332 716.796 503.545 732.745 486.63 746.066C456.777 769.384 423.336 779.043 387.67 789.175C379.246 791.74 370.392 794.122 361.665 796.798C327.48 807.576 296.508 834.029 279.145 867.927C256.419 911.778 254.612 946.974 273.227 972.325C295.423 1002.16 332.549 1022.63 369.384 1040.31C423.145 1065.93 498.482 1095.75 552.135 1091.13C556.614 1090.69 561.298 1090.34 566.193 1090.08C610.031 1087.18 664.771 1083.52 675.604 1021.39C678.486 1005.02 678.993 988.334 679.537 972.147C680.274 946.867 681.12 923.082 690.029 900.438C704.686 862.936 732.189 830.606 754.313 806.537C772.862 787.171 785.385 769.503 793.454 751.075ZM281.262 880.932C282.147 878.911 282.945 877.088 283.833 875.061C299.215 842.226 329.009 815.016 361.452 804.191C370.654 800.997 379.89 798.308 389.129 795.613C421.342 785.895 451.545 776.739 478.923 756.196C495.779 743.576 510.426 728.529 526.026 712.455C548.04 689.785 570.922 666.295 601.125 649.652C609.506 644.888 617.427 639.445 625.053 634.11C644.311 620.613 662.58 607.645 688.328 609.813C706.767 611.418 726.913 620.058 745.681 634.124C774.825 656.145 790.35 690.283 786.362 723.554C782.251 756.525 769.313 783.195 742.843 812.597C720.279 837.674 695.036 867.135 681.133 900.621C672.244 922.071 670.945 945.174 669.834 969.562C669.194 984.254 668.375 999.355 665.813 1014.41C655.643 1072.73 606.652 1078.2 567.432 1082.66C562.146 1083.23 557.071 1083.89 552.297 1084.44C498.85 1092.05 419.975 1059.94 377.558 1040.05C340.968 1022.95 304.086 1003.08 281.629 973.854C263.725 951.473 263.706 921.029 281.262 880.932ZM773.406 763.497C778.901 750.946 782.323 737.956 784.196 723.326C788.13 690.759 772.85 657.211 744.254 635.669C725.901 621.786 705.969 613.24 687.952 611.822C662.926 609.733 645.051 622.386 626.09 635.77C618.464 641.105 610.451 646.758 602.072 651.517C571.957 667.96 549.375 691.345 527.451 713.81C511.851 729.884 497.207 744.925 480.255 757.747C452.579 778.404 422.075 787.666 389.868 797.386C380.837 800.172 371.599 802.867 362.399 806.055C330.555 816.662 301.151 843.562 285.94 875.99C266.176 918.252 265.063 950.133 283.121 973.309C305.252 1002.14 342.016 1021.72 378.305 1038.92C420.506 1058.73 499.167 1090.74 551.808 1083.26C556.672 1082.5 561.654 1082.04 566.943 1081.48C605.655 1077.04 653.921 1071.49 663.771 1014.48C666.245 999.625 667.064 984.524 667.704 969.833C668.899 945.237 669.99 922.042 678.966 900.393C693.173 866.796 718.497 837.133 741.152 811.852C755.877 794.91 766.312 779.698 773.406 763.497ZM290.574 880.933C304.228 849.748 331.235 823.728 361.127 812.988C370.927 809.576 380.948 806.26 390.571 803.253C419.541 794.035 446.707 785.477 471.705 767.506C488.598 755.384 503.4 741.133 518.946 725.762C539.505 705.834 560.721 684.986 587.928 669.442C596.397 664.478 604.377 658.334 612.182 652.589C630.381 638.632 647.417 625.603 672.195 627.106C689.881 628.134 709.357 635.99 727.162 649.394C753.791 669.104 768.725 700.564 766.314 731.383C763.642 764.513 752.384 790.225 728.929 817.335L727.976 818.362C705.653 844.035 682.591 870.829 669.137 900.409C668.96 900.814 668.87 901.019 668.693 901.423C659.827 921.673 658.463 943.777 656.981 967.281C656.243 980.482 655.322 994.085 652.958 1007.54C643.765 1060.74 600.748 1068.11 566.433 1074C560.971 1074.98 555.806 1075.84 550.855 1076.8C501.185 1087.28 425.842 1057.46 385.156 1038.8C349.325 1022.29 312.895 1003.09 290.202 974.975C267.17 946.469 278.856 908.86 289.687 882.96C290.043 882.146 290.308 881.542 290.574 880.933ZM753.571 776.013C759.6 762.243 763.005 747.561 764.443 731.048C766.893 700.721 752.203 669.852 726.12 650.626C708.433 637.519 689.381 629.843 672.212 628.798C648.148 627.378 631.204 640.197 613.304 654.055C605.709 659.886 597.729 666.03 588.963 671.107C561.968 686.745 540.842 707.388 520.278 727.314C504.731 742.684 489.93 756.936 472.948 769.262C447.741 787.142 420.485 795.905 391.221 805.231C381.591 808.236 371.577 811.553 361.773 814.957C331.584 825.811 304.7 852.13 291.378 883.705C280.719 909.199 269.092 946.107 291.458 973.837C313.817 1001.57 350.033 1020.67 385.65 1037.09C425.923 1055.56 501.052 1085.29 550.212 1074.82C555.163 1073.87 560.327 1073 565.79 1072.03C599.801 1066.24 642.014 1059 650.881 1007.11C653.246 993.652 654.071 980.252 654.817 967.048C656.26 943.05 657.803 920.537 667.148 899.777C680.692 869.991 703.754 843.197 726.166 817.32L727.119 816.293C738.889 802.641 747.542 789.783 753.571 776.013ZM298.74 883.567C311.065 855.417 334.369 832.113 361.313 821.766C371.681 817.639 382.508 814.197 392.612 810.674C418.246 802.167 442.473 793.999 464.693 778.913C481.83 767.381 496.758 753.423 512.667 738.939C531.354 721.57 550.82 703.572 574.821 689.026C583.377 683.863 591.323 677.215 598.881 670.886C615.937 656.662 632.127 643.267 656.242 643.989C673.079 644.643 691.889 651.723 709.115 664.151C733.442 681.632 747.576 710.326 746.648 738.906C745.338 772.385 736.317 796.433 715.197 821.671C711.896 825.766 708.465 829.574 705.155 833.672C686.564 855.432 669.222 876.051 657.703 899.481C647.996 919.354 646.298 941.072 644.485 964.186C643.429 975.8 642.497 987.713 640.542 999.651C632.161 1048.13 595.076 1056.91 565.25 1064.06C559.905 1065.33 554.564 1066.6 549.944 1067.95C504.059 1081.3 432.161 1053.96 393.403 1036.64C358.03 1020.81 322.266 1002.39 299.433 975.178C278.261 949.91 286.545 916.596 296.029 890.341C296.79 888.02 297.765 885.793 298.74 883.567ZM734.513 787.907C740.896 773.328 744.027 757.554 744.697 738.766C745.654 710.689 731.681 682.791 707.986 665.583C691.178 653.346 672.79 646.451 656.25 645.684C632.95 644.832 617.061 658.122 600.093 672.146C592.534 678.476 584.591 685.118 575.729 690.398C551.823 704.741 532.655 722.625 513.968 739.995C498.183 754.778 483.131 768.437 465.907 780.168C443.299 795.572 417.752 803.879 393.225 812.153C382.909 815.576 372.297 819.113 361.928 823.239C333.394 834.34 308.936 860.281 297.802 890.884C288.501 916.738 280.177 949.545 300.984 973.932C323.699 1000.85 359.249 1019.17 394.414 1034.92C432.959 1052.14 504.435 1079.29 549.722 1066.16C554.645 1064.7 559.683 1063.54 565.115 1062.07C595.838 1054.59 630.911 1046.38 639.064 998.999C641.146 987.355 642.165 975.243 642.917 963.74C644.82 940.421 646.606 918.503 656.411 898.422C668.011 874.79 685.442 853.966 704.034 832.207C707.341 828.114 710.772 824.306 714.076 820.205C722.682 809.752 729.548 799.245 734.513 787.907ZM306.397 886.214C317.301 861.311 337.407 840.701 360.99 830.557C372.134 825.807 383.649 821.942 394.74 817.896C415.934 810.327 437.941 802.633 457.776 790.117C475.548 778.866 491.015 765.39 507.348 751.086C524.077 736.475 541.183 721.553 561.712 708.616C570.358 703.248 578.059 696.01 585.493 689.381C601.706 674.787 616.839 660.925 640.201 661.071C656.069 661.06 674.545 667.755 690.68 679.214C712.411 694.585 726.249 720.493 726.599 746.735C726.933 771.285 724.128 797.828 701.283 826.408C695.807 833.173 690.204 839.645 684.812 846.202C669.825 863.756 655.788 880.274 646.011 899.158C635.933 918.148 633.808 939.678 631.455 962.31C630.391 972.228 629.445 982.443 627.777 992.578C620.201 1036.34 589.945 1046.2 563.282 1054.74C558.064 1056.31 553.268 1058.06 548.687 1059.9C506.992 1076.31 438.332 1051.37 401.178 1035C366.766 1019.83 331.466 1002.1 307.97 975.801C288.234 953.578 293.61 924.058 301.47 898.051C303.243 894.002 304.712 890.064 306.397 886.214ZM716.319 798.972C723.767 781.962 725.381 765.044 725.158 746.582C724.844 720.839 711.242 695.524 690.059 680.632C674.05 669.466 655.993 662.963 640.631 662.952C617.786 662.79 602.948 676.543 587.126 690.828C579.604 697.656 571.779 704.595 563.044 710.168C542.729 723.199 525.621 738.126 508.987 752.535C492.651 766.831 476.88 780.418 459.108 791.669C438.978 804.293 416.971 811.986 395.776 819.555C384.77 823.407 373.168 827.473 362.025 832.222C335.146 843.57 312.913 869.037 304.055 898.47C296.372 924.072 291.058 952.886 310.038 974.539C333.107 1000.65 367.985 1018.19 402.487 1033.15C488.499 1070.82 530.898 1064.87 548.547 1057.91C553.135 1056.06 558.14 1054.4 563.363 1052.84C589.509 1044.32 619.165 1034.68 626.596 991.813C628.264 981.678 629.422 971.563 630.278 961.553C632.509 938.617 634.632 917.092 644.887 897.698C654.967 878.703 669.086 861.983 684.079 844.432C689.378 838.071 695.067 831.401 700.462 824.838C707.34 816.034 712.594 807.48 716.319 798.972ZM313.662 889.178C323.239 867.304 340.713 848.679 360.963 839.241C372.978 833.666 385.268 829.177 397.556 824.694C415.544 818.124 433.915 811.247 451.069 801.408C470.283 790.31 486.863 776.604 504.517 762.162C518.38 750.635 532.752 739.095 548.99 727.888C557.509 722.226 565.092 714.692 572.28 707.478C587.438 692.412 601.942 678.274 624.843 677.741C640.078 677.444 657.675 683.269 673.24 693.75C692.79 707.195 705.667 729.542 707.622 753.834C709.731 781.816 707.443 805.448 688.453 830.415C681.87 839.11 674.657 847.529 667.63 855.539C655.38 869.706 643.784 882.959 635.184 898.008C624.648 916.314 622.102 937.658 619.414 959.904C618.426 967.92 617.465 976.437 616.084 984.768C609.349 1024.31 584.181 1035.2 561.795 1044.91C557.125 1046.95 552.75 1048.89 548.501 1051.12C511.012 1070.59 445.581 1048.04 409.942 1032.82C377.882 1019.17 341.983 1001.66 317.709 975.99C299.378 956.315 302.664 929.257 308.315 905.416C309.386 900.092 311.268 894.645 313.662 889.178ZM698.783 809.118C706.318 791.908 707.179 774.414 705.492 754.105C703.568 730.308 691.023 708.353 672.015 695.384C656.877 685.092 639.494 679.361 624.765 679.636C602.586 680.249 588.472 694.077 573.404 708.938C566.214 716.157 558.425 723.595 549.81 729.459C533.663 740.461 519.201 752.206 505.427 763.528C487.774 777.97 471.191 791.681 451.682 802.887C434.531 812.72 415.856 819.708 398.081 826.372C386.089 830.748 373.495 835.347 361.789 840.814C336.863 852.296 316.586 877.905 309.881 905.868C304.173 930.404 301.087 955.858 318.965 974.852C342.812 1000.33 378.59 1017.55 410.349 1031.31C445.573 1046.35 510.273 1068.82 547.164 1049.57C551.412 1047.34 555.787 1045.4 560.465 1043.35C582.332 1033.67 607.199 1022.88 613.706 984.441C615.085 976.115 616.17 967.897 617.161 959.876C619.935 937.43 622.482 916.086 633.195 897.376C641.885 882.122 653.48 868.869 665.731 854.702C672.758 846.691 679.883 838.473 686.463 829.783C691.911 822.516 695.856 815.803 698.783 809.118ZM320.417 892.155C328.663 873.322 343.242 857.281 360.851 848.132C373.816 841.522 387.694 836.285 400.973 831.268C415.236 825.719 430.016 820.153 444.056 812.815C466.307 801.119 485.372 786.334 505.605 770.61C515.138 763.215 525.144 755.308 535.793 747.677C544.194 741.719 551.438 733.797 558.507 726.287C572.252 711.57 586.565 696.137 608.797 694.821C623.282 693.955 640.125 699.204 654.802 708.818C672.054 720.041 684.25 739.914 687.573 761.664C691.085 784.713 692.863 809.41 674.33 835.061C666.831 845.282 658.453 854.634 650.465 863.675C640.266 874.887 630.851 885.473 623.279 897.591C611.9 915.526 609.021 936.479 606.03 958.836C605.115 964.955 604.317 971.37 603.194 977.396C596.998 1012.83 576.529 1025.07 558.512 1035.73C554.471 1038.05 550.731 1040.27 547.11 1042.78C513.946 1065.61 451.634 1045.15 417.503 1031.08C386.41 1018.1 351.301 1001.66 326.254 976.61C309.112 959.395 310.077 935.907 313.753 913.131C315.326 906.094 317.492 898.835 320.417 892.155ZM681.933 818.846C690.532 799.205 688.823 780.095 685.952 761.921C682.668 740.663 670.708 721.384 653.886 710.343C639.415 700.827 622.993 695.764 609.025 696.613C587.298 697.908 573.944 712.315 559.926 727.639C552.773 735.356 545.526 743.271 537.122 749.234C526.482 756.862 516.558 764.567 507.024 771.963C486.794 787.681 467.431 802.579 445.18 814.275C431.14 821.613 416.36 827.179 402.097 832.728C388.815 837.751 374.937 842.987 362.183 849.683C338.617 861.52 320.771 886.753 316.341 913.545C312.842 935.916 311.72 958.615 328.316 975.345C353.156 1000.31 388.056 1016.65 418.93 1029.53C452.645 1043.42 514.114 1063.51 546.711 1041.4C550.332 1038.88 554.072 1036.67 558.113 1034.34C575.826 1023.79 595.995 1011.66 602.05 977.13C603.053 970.812 603.968 964.694 604.884 958.576C607.964 936.013 610.93 914.861 622.486 896.522C630.061 884.398 639.779 873.701 649.762 862.4C657.75 853.359 666.129 844.008 673.54 833.986C676.777 828.891 679.716 823.908 681.933 818.846ZM326.7 895.644C333.791 879.448 345.949 865.478 360.734 857.02C374.834 848.981 390.597 842.884 405.762 837.006C416.043 833.079 426.715 828.841 437.052 824.219C467.424 810.069 492.231 790.804 521.037 768.715L522.891 767.359C530.961 761.01 537.996 752.996 544.728 745.093C557.718 729.805 571.187 714.001 593.265 711.889C606.904 710.658 622.958 714.832 637.18 723.756C652.16 733.258 663.825 749.751 668.424 769.169C674.096 792.444 677.788 815.083 661.318 839.469C653.588 850.798 644.308 860.479 635.337 870.052C626.921 878.904 618.903 887.45 612.266 896.849C600.045 914.411 596.478 935.788 593.015 958.658C592.352 962.469 591.686 966.286 591.237 970.191C585.825 1002.11 569.632 1015.51 555.474 1027.14C552.363 1029.64 549.556 1032.02 546.659 1034.61C518.121 1060.68 459.038 1042.62 426.208 1029.6C398.108 1018.42 362.609 1002.3 336.03 977.297C319.74 962.149 318.976 940.311 320.548 921.194C320.871 912.403 323.152 903.747 326.7 895.644ZM665.911 827.247C674.424 807.806 671.095 788.947 666.415 769.731C661.853 750.811 650.609 734.504 635.96 725.392C622.16 716.654 606.618 712.461 593.189 713.792C571.921 715.771 559.409 730.55 545.94 746.354C539.208 754.257 531.995 762.675 523.926 769.024L522.071 770.38C493.172 792.666 468.157 811.839 437.783 825.995C427.659 830.711 416.782 834.852 406.414 838.978C391.243 844.854 375.781 850.846 361.681 858.885C339.888 871.265 323.876 896.335 321.99 921.347C320.578 941.262 321.33 961.396 336.859 975.971C363.106 1000.58 398.605 1016.71 426.495 1027.8C458.816 1040.83 517.264 1058.61 545.024 1033.17C547.921 1030.58 550.73 1028.19 553.841 1025.7C568.48 1013.55 583.804 1000.98 589.16 969.758C589.823 965.947 590.483 962.128 591.146 958.316C594.823 935.541 598.271 913.868 610.67 895.901C617.388 886.3 625.323 877.962 633.822 868.902C642.709 859.537 651.984 849.853 659.418 838.632C662.121 834.755 664.315 830.892 665.911 827.247ZM332.377 899.355C338.316 885.79 348.144 873.694 360.625 865.906C376.714 855.605 395.301 848.816 413.377 842.047C418.859 839.877 424.557 837.796 430.04 835.626C458.062 824.544 482.752 809.575 509.695 787.148C517.551 780.705 524.044 772.214 530.444 763.921C542.68 748.056 555.389 731.679 577.014 728.885C590.102 727.167 605.186 730.676 618.534 738.732C636.139 749.147 644.627 767.14 648.16 776.91C655.745 798.127 661.988 820.681 647.193 844.121C639.621 856.24 629.621 865.848 619.922 875.337C612.819 882.357 606.199 888.855 600.45 896.227C586.484 913.748 582.687 936.232 578.774 960.113L578.434 962.62C573.275 992.228 561.539 1006.38 550.278 1020.02C548.668 1021.97 547.063 1023.92 545.453 1025.86C521.956 1055.37 465.388 1039.62 433.946 1027.45C395.781 1012.81 366.41 996.48 344.744 977.516C329.074 963.845 326.611 944.158 326.163 928.505C326.12 918.819 328.297 908.671 332.377 899.355ZM650.156 835.04C658.936 814.989 653.323 795.606 646.662 777.453C640.858 761.369 630.205 747.741 617.826 740.349C604.602 732.592 590.029 729.064 577.443 730.767C556.633 733.43 544.012 749.608 531.953 765.068C525.553 773.362 518.762 781.966 510.906 788.409C483.662 810.941 458.978 825.913 430.655 837.1C425.17 839.275 419.472 841.356 413.782 843.434C396.001 850.096 377.327 857.084 361.322 867.178C340.709 880.323 327.218 904.812 327.695 928.453C328.022 943.815 330.448 963.003 345.578 976.192C367.118 994.863 396.281 1011.1 434.233 1025.65C465.253 1037.63 520.588 1053.32 543.517 1024.53C545.127 1022.58 546.737 1020.64 548.431 1018.48C559.692 1004.84 571.344 990.895 576.234 961.888L576.579 959.384C580.553 936.495 584.46 912.611 598.601 894.692C604.44 887.115 611.453 880.301 618.376 873.691C627.988 864.401 637.862 854.5 645.259 842.78C647.645 840.21 649.004 837.671 650.156 835.04ZM337.581 903.577C342.545 892.239 350.553 882.004 360.598 874.59C378.656 861.535 400.57 854.039 423.122 846.83C454.399 836.938 476.524 824.949 496.675 806.533C504.11 799.904 510.176 791.225 516.154 782.746C527.843 766.402 539.8 749.443 561.268 745.86C573.513 743.77 587.844 746.702 600.703 753.578C615.493 761.787 624.682 776.462 628.799 784.316C639.17 804.349 647.087 825.956 633.966 848.435C626.726 860.944 616.097 870.275 605.976 879.579C600.27 884.558 594.389 889.935 589.357 895.686C574.6 912.132 569.6 935.051 566.269 955.322C561.337 983.829 554.634 999.72 544.699 1017.8C526.373 1051.04 472.702 1037.29 442.348 1026.09C407.81 1013.52 378.054 997.509 354.132 978.508C342.341 969.209 335.267 955.459 332.655 936.679C330.982 925.554 332.97 914.107 337.581 903.577ZM635.185 842.206C643.872 822.365 636.725 803.027 627.423 785.163C623.306 777.309 614.45 763.02 600.203 755.287C587.859 748.4 573.949 745.653 561.999 747.636C541.557 751.188 529.478 767.843 518.178 783.882C512.201 792.356 505.832 801.146 498.308 807.979C477.855 826.501 455.737 838.492 424.069 848.695C401.515 855.909 379.603 863.4 361.935 876.144C342.795 889.937 331.47 914.655 334.369 936.225C336.936 954.51 343.684 967.871 355.143 976.78C379.15 995.573 408.484 1011.4 442.938 1024.17C472.657 1035.1 525.392 1048.67 543.19 1016.65C553.032 998.77 559.739 982.886 564.488 954.782C567.914 934.308 572.996 911.187 588.143 894.431C593.391 888.768 599.272 883.391 605.066 878.213C615.094 869.106 625.425 859.889 632.578 847.579C633.376 845.757 634.387 844.028 635.185 842.206ZM341.97 907.93C345.96 898.819 352.329 890.029 360.272 883.387C373.832 871.971 392.706 863.379 416.202 858.027C440.3 852.464 463.726 846.123 483.655 825.918C490.365 819.214 496.226 810.438 501.78 801.779C513.013 784.745 524.516 767.11 545.402 762.543C556.804 760.082 570.048 762.053 582.445 768.236C594.211 774.148 603.398 784.236 608.926 791.747C625.714 814.363 629.568 834.9 620.235 852.771C613.629 865.56 602.539 874.199 591.963 882.826C587.212 886.772 582.253 890.626 577.628 894.865C565.51 906.434 557.671 923.754 553.551 947.544C552.116 956.578 551.127 964.594 550.22 972.408C548.67 985.733 547.401 997.253 543.493 1009.06C530.312 1047.22 473.691 1032.17 450.092 1023.94C421.039 1013.8 390.803 998.297 362.851 978.73C350.706 970.239 342.109 958.237 338.183 944.19C335.366 932.799 336.739 919.878 341.97 907.93ZM620.086 849.084C627.269 832.678 623.008 813.653 607.67 792.885C602.268 785.668 593.509 775.768 581.861 770.153C569.879 764.152 557.153 762.165 546.045 764.519C525.671 769.066 514.351 786.299 503.503 803.02C497.948 811.68 492.088 820.456 485.288 827.364C465.058 847.675 441.247 854.329 416.939 859.805C393.743 865.039 375.26 873.32 361.694 884.733C343.774 899.785 334.966 923.927 340.282 943.423C344.084 957.171 352.347 968.788 364.158 976.894C392.2 996.256 422.135 1011.86 450.98 1021.92C474.151 1029.95 529.424 1044.65 541.895 1008.11C545.923 996.601 547.192 985.082 548.652 971.961C549.56 964.148 550.343 956.035 551.983 947.097C556.072 922.812 564.208 905.378 576.504 893.405C580.915 889.072 585.97 885.015 590.839 881.366C601.238 873.143 612.115 864.41 618.543 852.026C619.2 851.106 619.644 850.092 620.086 849.084ZM346.096 912.887C349.197 905.803 353.743 898.866 360.459 892.165C372.931 879.787 390.307 871.738 409.493 869.323C433.672 866.453 454.395 863.989 470.756 845.594C476.747 838.818 481.913 830.463 487.136 821.412C497.703 803.603 508.837 785.079 529.656 779.518C540.008 776.593 552.492 777.985 564.612 783.088C573.57 786.791 582.144 792.506 589.352 799.059C612.381 820.084 613.605 842.601 606.801 856.994C600.912 869.861 589.457 877.618 578.602 885.152C574.596 887.978 570.288 890.91 566.498 893.826C553.677 904.12 544.751 920.479 541.347 939.754C539.56 949.592 540.958 959.63 542.142 969.574C543.334 979.516 544.554 989.959 542.886 1000.09C541.038 1010.64 535.837 1018.49 527.368 1023.45C506.778 1035.4 472.265 1026.22 458.643 1021.67C428.179 1011.87 399.797 995.012 372.383 978.827C358.4 970.491 349.199 961.599 344.82 951.463C340.06 941.634 339.8 927.266 346.096 912.887ZM588.132 800.695C580.925 794.142 572.469 788.725 563.727 785.11C552.026 780.198 540.053 778.787 530.002 781.606C509.695 787.148 499.041 805.157 488.561 822.767C483.125 831.723 478.168 840.165 471.878 847.059C455.039 865.964 433.805 868.447 409.33 871.425C390.439 873.732 373.367 881.671 361.279 893.735C347.764 907.345 337.094 931.149 345.93 951.225C350.27 960.868 359.057 969.571 372.826 977.813C400.241 993.998 428.409 1010.76 458.659 1020.47C472.161 1024.73 505.952 1033.82 525.859 1022.3C533.937 1017.65 538.666 1010.31 540.542 1000.27C542.329 990.432 541.021 980.188 539.835 970.249C538.651 960.305 537.341 950.067 539.217 940.024C542.585 920.251 551.6 903.687 564.806 893.08C568.692 889.962 572.999 887.03 577.006 884.204C588.158 876.557 598.923 869.229 604.634 856.766C611.559 842.664 610.498 820.939 588.132 800.695Z" fill="black"/>
</g>
</svg>
